<?xml version="1.0" standalone="no"?>
<!DOCTYPE svg PUBLIC "-//W3C//DTD SVG 20010904//EN"
 "http://www.w3.org/TR/2001/REC-SVG-20010904/DTD/svg10.dtd">
<svg version="1.0" xmlns="http://www.w3.org/2000/svg"
 width="500.000000pt" height="500.000000pt" viewBox="0 0 500.000000 500.000000"
 preserveAspectRatio="xMidYMid meet">
<metadata>
Created by potrace 1.14, written by Peter Selinger 2001-2017
</metadata>
<g transform="translate(0.000000,500.000000) scale(0.100000,-0.100000)"
fill="#000000" stroke="none">
<path d="M2270 4485 c-318 -38 -620 -149 -874 -319 -474 -319 -774 -786 -872
-1361 -28 -158 -25 -472 5 -640 98 -552 417 -1039 876 -1337 236 -153 524
-264 810 -310 105 -17 465 -17 570 0 419 68 804 256 1093 536 534 516 739
1245 553 1961 -146 561 -544 1037 -1078 1292 -333 158 -720 222 -1083 178z
m389 -532 c74 -38 105 -96 105 -193 -2 -144 -99 -225 -269 -223 -170 1 -267
100 -251 256 14 142 104 202 285 192 57 -3 88 -10 130 -32z m77 -537 c16 -22
29 -844 20 -1269 -8 -345 -15 -398 -63 -495 -14 -28 -52 -77 -84 -107 -106
-101 -236 -141 -429 -131 -63 3 -137 11 -165 18 l-50 13 0 189 0 189 80 -2
c127 -3 165 32 184 166 5 37 12 371 14 741 4 496 8 676 17 687 16 19 81 23
290 20 146 -3 176 -6 186 -19z"/>
</g>
</svg>
